<svg xmlns="http://www.w3.org/2000/svg" viewBox="0 0 240 240" width="240" height="240">
  <!-- PLACEHOLDER Speed face. Drop a real /public/speed.png to override automatically. -->
  <defs>
    <radialGradient id="glow" cx="50%" cy="40%" r="60%">
      <stop offset="0%" stop-color="#ffcf33" stop-opacity="0.0"/>
      <stop offset="80%" stop-color="#ffcf33" stop-opacity="0.0"/>
      <stop offset="100%" stop-color="#ffcf33" stop-opacity="0.0"/>
    </radialGradient>
  </defs>
  <!-- hair -->
  <path d="M44 120 C40 56 90 26 120 26 C150 26 200 56 196 120 C196 90 150 70 120 70 C90 70 44 90 44 120 Z" fill="#1a1208"/>
  <!-- head -->
  <ellipse cx="120" cy="132" rx="74" ry="84" fill="#7a5238"/>
  <!-- ears -->
  <ellipse cx="48" cy="132" rx="12" ry="18" fill="#6b4730"/>
  <ellipse cx="192" cy="132" rx="12" ry="18" fill="#6b4730"/>
  <!-- eyebrows (raised, excited) -->
  <path d="M70 104 q22 -16 44 -2" stroke="#1a1208" stroke-width="7" fill="none" stroke-linecap="round"/>
  <path d="M126 102 q22 -14 44 2" stroke="#1a1208" stroke-width="7" fill="none" stroke-linecap="round"/>
  <!-- eyes (wide open) -->
  <ellipse cx="92" cy="124" rx="17" ry="20" fill="#fff"/>
  <ellipse cx="148" cy="124" rx="17" ry="20" fill="#fff"/>
  <circle cx="94" cy="126" r="9" fill="#1a1208"/>
  <circle cx="146" cy="126" r="9" fill="#1a1208"/>
  <circle cx="97" cy="123" r="3" fill="#fff"/>
  <circle cx="149" cy="123" r="3" fill="#fff"/>
  <!-- screaming open mouth -->
  <ellipse cx="120" cy="178" rx="34" ry="30" fill="#3a1410"/>
  <path d="M88 170 q32 -14 64 0 Z" fill="#fff"/>
  <ellipse cx="120" cy="190" rx="16" ry="12" fill="#d23b2a"/>
  <!-- headband, Portugal red -->
  <rect x="46" y="86" width="148" height="16" rx="8" fill="#e63946"/>
  <rect x="112" y="86" width="16" height="16" fill="#0f9d58"/>
</svg>
